<?xml version="1.0" encoding="UTF-8" standalone="no"?>
<!-- Created with Inkscape (http://www.inkscape.org/) -->

<svg
   xmlns:dc="http://purl.org/dc/elements/1.1/"
   xmlns:cc="http://creativecommons.org/ns#"
   xmlns:rdf="http://www.w3.org/1999/02/22-rdf-syntax-ns#"
   xmlns:svg="http://www.w3.org/2000/svg"
   xmlns="http://www.w3.org/2000/svg"
   xmlns:sodipodi="http://sodipodi.sourceforge.net/DTD/sodipodi-0.dtd"
   xmlns:inkscape="http://www.inkscape.org/namespaces/inkscape"
   width="61.532909mm"
   height="25.953297mm"
   viewBox="0 0 61.532909 25.953297"
   version="1.1"
   id="svg5168"
   inkscape:version="0.92.1 r15371"
   sodipodi:docname="logo_isep.svg">
  <defs
     id="defs5162">
    <clipPath
       clipPathUnits="userSpaceOnUse"
       id="clipPath4519">
      <path
         d="m 62.67,748.219 h 174.424 v 73.569 H 62.67 Z"
         id="path4517"
         inkscape:connector-curvature="0" />
    </clipPath>
    <clipPath
       clipPathUnits="userSpaceOnUse"
       id="clipPath4531">
      <path
         d="m 193.333,798.898 h 33.044 v -35.901 h -33.044 z"
         id="path4529"
         inkscape:connector-curvature="0" />
    </clipPath>
    <clipPath
       clipPathUnits="userSpaceOnUse"
       id="clipPath4535">
      <path
         d="m 193.334,762.997 h 33.043 v 35.901 h -33.043 z"
         id="path4533"
         inkscape:connector-curvature="0" />
    </clipPath>
    <clipPath
       clipPathUnits="userSpaceOnUse"
       id="clipPath4555">
      <path
         d="m 184.481,806.012 h 21.865 v -23.103 h -21.865 z"
         id="path4553"
         inkscape:connector-curvature="0" />
    </clipPath>
    <clipPath
       clipPathUnits="userSpaceOnUse"
       id="clipPath4559">
      <path
         d="m 184.481,782.91 h 21.865 v 23.101 h -21.865 z"
         id="path4557"
         inkscape:connector-curvature="0" />
    </clipPath>
  </defs>
  <sodipodi:namedview
     id="base"
     pagecolor="#ffffff"
     bordercolor="#666666"
     borderopacity="1.0"
     inkscape:pageopacity="0.0"
     inkscape:pageshadow="2"
     inkscape:zoom="0.35"
     inkscape:cx="-105.14591"
     inkscape:cy="-453.81155"
     inkscape:document-units="mm"
     inkscape:current-layer="layer1"
     showgrid="false"
     fit-margin-top="0"
     fit-margin-left="0"
     fit-margin-right="0"
     fit-margin-bottom="0"
     inkscape:window-width="1920"
     inkscape:window-height="1017"
     inkscape:window-x="1912"
     inkscape:window-y="-8"
     inkscape:window-maximized="1" />
  <metadata
     id="metadata5165">
    <rdf:RDF>
      <cc:Work
         rdf:about="">
        <dc:format>image/svg+xml</dc:format>
        <dc:type
           rdf:resource="http://purl.org/dc/dcmitype/StillImage" />
        <dc:title></dc:title>
      </cc:Work>
    </rdf:RDF>
  </metadata>
  <g
     inkscape:label="Calque 1"
     inkscape:groupmode="layer"
     id="layer1"
     transform="translate(-5.5192598,-2.8090636)">
    <g
       id="g4513"
       transform="matrix(0.35277777,0,0,-0.35277777,-16.589323,292.71739)">
      <g
         id="g4515"
         clip-path="url(#clipPath4519)">
        <g
           id="g4521"
           transform="translate(234.6839,776.8767)">
          <path
             d="m 0,0 -42.541,9.564 c -1.289,0 -2.343,1.07 -2.343,2.378 v 30.543 c 0,1.307 1.054,2.376 2.343,2.376 H 0.067 c 1.289,0 2.344,-1.069 2.344,-2.376 L 2.342,2.377 C 2.342,1.069 1.288,0 0,0"
             style="fill:#005fa1;fill-opacity:1;fill-rule:nonzero;stroke:none"
             id="path4523"
             inkscape:connector-curvature="0" />
        </g>
        <g
           id="g4525">
          <g
             id="g4527" />
          <g
             id="g4547">
            <g
               clip-path="url(#clipPath4531)"
               id="g4545"
               style="opacity:0.85000598">
              <g
                 id="g4543">
                <g
                   clip-path="url(#clipPath4535)"
                   id="g4541">
                  <g
                     transform="translate(226.3763,764.616)"
                     id="g4539">
                    <path
                       d="m 0,0 v 14.121 18.042 c 0,2.027 -1.862,2.119 -2.2,2.119 -0.034,0 -0.052,-10e-4 -0.052,-10e-4 h -17.781 -11.571 c -1.283,-0.035 -1.433,-1.066 -1.439,-1.523 v -0.037 c 0.002,-0.11 0.011,-0.179 0.011,-0.179 l 0.008,-11.012 10e-4,-0.789 0.005,-9.88 c 0,-1.189 1.547,-1.695 1.547,-1.695 L -2.742,-1.271 c 0.562,-0.247 1.009,-0.346 1.365,-0.348 h 0.015 C 0.072,-1.614 0,0 0,0"
                       style="fill:#ffffff;fill-opacity:1;fill-rule:nonzero;stroke:none"
                       id="path4537"
                       inkscape:connector-curvature="0" />
                  </g>
                </g>
              </g>
            </g>
          </g>
        </g>
        <g
           id="g4549">
          <g
             id="g4551" />
          <g
             id="g4571">
            <g
               clip-path="url(#clipPath4555)"
               id="g4569"
               style="opacity:0.69999701">
              <g
                 id="g4567">
                <g
                   clip-path="url(#clipPath4559)"
                   id="g4565">
                  <g
                     transform="translate(206.3451,805.0989)"
                     id="g4563">
                    <path
                       d="M 0,0 C 0,0.775 -0.455,0.906 -0.742,0.913 H -0.783 C -0.892,0.91 -0.967,0.892 -0.967,0.892 l -15.031,-1.944 -4.641,-0.599 c -1.115,-0.254 -1.222,-1.253 -1.224,-1.611 v -0.017 c 0,-0.07 0.005,-0.112 0.005,-0.112 v -17.754 c 0.015,-0.832 0.505,-1.035 0.956,-1.045 h 0.072 c 0.355,0.007 0.666,0.124 0.666,0.124 l 7.162,2.325 1.442,0.467 10.728,3.483 c 0.892,0.296 0.803,0.92 0.803,0.92 l 0.017,8.67 z"
                       style="fill:#f6a100;fill-opacity:1;fill-rule:nonzero;stroke:none"
                       id="path4561"
                       inkscape:connector-curvature="0" />
                  </g>
                </g>
              </g>
            </g>
          </g>
        </g>
        <g
           id="g4573"
           transform="translate(193.3519,786.1692)">
          <path
             d="m 0,0 -1.21,0.272 c -1.288,0 -2.342,1.069 -2.342,2.377 V 17.807 L -7.646,17.279 C -8.761,17.024 -8.868,16.026 -8.87,15.668 v -0.017 c 0,-0.071 0.004,-0.112 0.004,-0.112 V -2.215 c 0.017,-0.832 0.508,-1.035 0.956,-1.045 h 0.073 c 0.356,0.008 0.667,0.125 0.667,0.125 l 7.162,2.323 0.009,0.003 L 0,-0.024 Z"
             style="fill:#f4a000;fill-opacity:1;fill-rule:nonzero;stroke:none"
             id="path4575"
             inkscape:connector-curvature="0" />
        </g>
        <g
           id="g4577"
           transform="translate(194.7767,785.8251)">
          <path
             d="m 0,0 -1.433,-0.465 v -0.004 l 0.006,-9.878 c 0,-1.188 1.547,-1.695 1.547,-1.695 L 28.848,-22.48 c 0.562,-0.247 1.009,-0.346 1.365,-0.348 h 0.016 c 1.433,0.006 1.363,1.619 1.363,1.619 v 14.121 0.007 L 0.039,0.013 Z"
             style="fill:#e3e3e3;fill-opacity:1;fill-rule:nonzero;stroke:none"
             id="path4579"
             inkscape:connector-curvature="0" />
        </g>
        <path
           d="m 64.028,808.255 h 4.229 V 775.39 h -4.229 z"
           style="fill:#005fa1;fill-opacity:1;fill-rule:nonzero;stroke:none"
           id="path4581"
           inkscape:connector-curvature="0" />
        <g
           id="g4583"
           transform="translate(93.5716,804.6599)">
          <path
             d="m 0,0 -2.719,-2.809 c -2.262,2.195 -4.472,3.292 -6.632,3.292 -1.373,0 -2.55,-0.453 -3.528,-1.359 -0.98,-0.907 -1.469,-1.963 -1.469,-3.172 0,-1.068 0.403,-2.084 1.21,-3.051 0.807,-0.987 2.503,-2.145 5.086,-3.473 3.148,-1.632 5.288,-3.203 6.417,-4.713 1.11,-1.531 1.666,-3.253 1.666,-5.165 0,-2.699 -0.949,-4.985 -2.845,-6.858 -1.896,-1.873 -4.265,-2.809 -7.109,-2.809 -1.897,0 -3.707,0.413 -5.431,1.239 -1.724,0.824 -3.151,1.963 -4.281,3.413 l 2.659,3.021 c 2.16,-2.437 4.45,-3.655 6.873,-3.655 1.695,0 3.138,0.543 4.329,1.631 1.191,1.087 1.787,2.365 1.787,3.837 0,1.208 -0.394,2.285 -1.18,3.232 -0.788,0.926 -2.564,2.094 -5.328,3.503 -2.968,1.531 -4.985,3.041 -6.055,4.532 -1.07,1.49 -1.604,3.191 -1.604,5.105 0,2.497 0.851,4.571 2.556,6.222 1.705,1.651 3.858,2.478 6.46,2.478 C -6.112,4.441 -3.066,2.96 0,0"
             style="fill:#005fa1;fill-opacity:1;fill-rule:nonzero;stroke:none"
             id="path4585"
             inkscape:connector-curvature="0" />
        </g>
        <g
           id="g4587"
           transform="translate(128.7328,795.1448)">
          <path
             d="m 0,0 c -0.565,2.255 -1.386,4.058 -2.466,5.407 -1.078,1.349 -2.505,2.436 -4.279,3.263 -1.775,0.825 -3.64,1.238 -5.595,1.238 -3.226,0 -5.999,-1.037 -8.317,-3.111 C -22.351,5.286 -23.631,3.021 -24.498,0 Z m 0,-8.851 3.564,-1.873 c -1.169,-2.296 -2.519,-4.149 -4.052,-5.559 -1.531,-1.41 -3.255,-2.481 -5.169,-3.217 -1.916,-0.734 -4.083,-1.101 -6.501,-1.101 -5.362,0 -9.554,1.756 -12.578,5.271 -3.023,3.514 -4.535,7.486 -4.535,11.917 0,4.168 1.279,7.884 3.84,11.146 3.245,4.148 7.588,6.223 13.031,6.223 5.603,0 10.078,-2.125 13.423,-6.374 C 3.402,4.581 4.611,0.836 4.652,-3.655 h -29.573 c 0.08,-3.818 1.3,-6.947 3.659,-9.387 2.359,-2.442 5.273,-3.663 8.741,-3.663 1.673,0 3.301,0.291 4.885,0.873 1.582,0.582 2.927,1.354 4.036,2.317 1.11,0.963 2.31,2.517 3.6,4.664"
             style="fill:#005fa1;fill-opacity:1;fill-rule:nonzero;stroke:none"
             id="path4589"
             inkscape:connector-curvature="0" />
        </g>
        <g
           id="g4591"
           transform="translate(158.2455,805.0222)">
          <path
             d="m 0,0 c -3.658,0 -6.736,-1.277 -9.238,-3.832 -2.501,-2.555 -3.752,-5.733 -3.752,-9.535 0,-2.494 0.557,-4.737 1.673,-6.728 1.114,-1.992 2.713,-3.57 4.792,-4.737 2.08,-1.167 4.275,-1.751 6.586,-1.751 2.269,0 4.404,0.589 6.402,1.767 2,1.175 3.592,2.82 4.777,4.932 1.186,2.112 1.78,4.324 1.78,6.638 0,2.333 -0.59,4.546 -1.764,6.637 C 10.08,-4.516 8.498,-2.892 6.51,-1.735 4.521,-0.579 2.35,0 0,0 m -16.917,3.232 h 4.23 v -6.041 c 1.669,2.296 3.59,4.017 5.763,5.165 2.174,1.149 4.598,1.722 7.274,1.722 4.666,0 8.66,-1.682 11.978,-5.045 3.32,-3.363 4.981,-7.411 4.981,-12.143 0,-4.833 -1.646,-8.937 -4.934,-12.309 -3.289,-3.374 -7.259,-5.06 -11.906,-5.06 -2.615,0 -5.019,0.543 -7.212,1.631 -2.193,1.086 -4.174,2.707 -5.944,4.864 v -17.672 h -4.23 z"
             style="fill:#005fa1;fill-opacity:1;fill-rule:nonzero;stroke:none"
             id="path4593"
             inkscape:connector-curvature="0" />
        </g>
        <g
           id="g4595"
           transform="translate(66.1283,821.7874)">
          <path
             d="m 0,0 c 0.962,0 1.785,-0.342 2.466,-1.027 0.682,-0.685 1.023,-1.51 1.023,-2.477 0,-0.947 -0.341,-1.762 -1.023,-2.447 C 1.785,-6.635 0.962,-6.978 0,-6.978 c -0.943,0 -1.755,0.343 -2.436,1.027 -0.682,0.685 -1.023,1.5 -1.023,2.447 0,0.967 0.341,1.792 1.023,2.477 C -1.755,-0.342 -0.943,0 0,0"
             style="fill:#f4a000;fill-opacity:1;fill-rule:nonzero;stroke:none"
             id="path4597"
             inkscape:connector-curvature="0" />
        </g>
        <g
           id="g4599"
           transform="translate(65.3446,760.6884)">
          <path
             d="M 0,0 H 1.155 L -0.43,-1.656 h -0.741 z m -2.675,-2.279 h 4.529 v -0.774 h -3.74 v -2.476 h 3.707 v -0.774 h -3.707 v -3.105 h 3.707 v -0.773 h -4.496 z"
             style="fill:#005fa1;fill-opacity:1;fill-rule:nonzero;stroke:none"
             id="path4601"
             inkscape:connector-curvature="0" />
        </g>
        <g
           id="g4603"
           transform="translate(74.1127,755.1376)">
          <path
             d="m 0,0 -0.596,-0.369 c -0.515,0.682 -1.218,1.025 -2.109,1.025 -0.712,0 -1.303,-0.228 -1.774,-0.687 -0.47,-0.457 -0.705,-1.014 -0.705,-1.668 0,-0.426 0.108,-0.828 0.325,-1.203 0.216,-0.375 0.513,-0.666 0.89,-0.875 0.378,-0.207 0.8,-0.311 1.269,-0.311 0.858,0 1.56,0.342 2.104,1.026 L 0,-3.453 c -0.279,-0.422 -0.654,-0.748 -1.126,-0.98 -0.47,-0.231 -1.007,-0.348 -1.608,-0.348 -0.924,0 -1.691,0.295 -2.3,0.881 -0.609,0.587 -0.913,1.302 -0.913,2.143 0,0.566 0.142,1.093 0.427,1.577 0.285,0.485 0.676,0.864 1.174,1.137 0.497,0.272 1.054,0.408 1.671,0.408 0.387,0 0.76,-0.06 1.12,-0.178 C -1.195,1.069 -0.89,0.916 -0.64,0.725 -0.388,0.536 -0.175,0.295 0,0"
             style="fill:#005fa1;fill-opacity:1;fill-rule:nonzero;stroke:none"
             id="path4605"
             inkscape:connector-curvature="0" />
        </g>
        <g
           id="g4607"
           transform="translate(78.3216,755.7664)">
          <path
             d="m 0,0 c -0.625,0 -1.163,-0.23 -1.612,-0.693 -0.449,-0.461 -0.674,-1.021 -0.674,-1.676 0,-0.423 0.103,-0.817 0.307,-1.182 0.205,-0.365 0.482,-0.648 0.831,-0.845 0.348,-0.2 0.731,-0.299 1.148,-0.299 0.417,0 0.8,0.099 1.148,0.299 0.349,0.197 0.626,0.48 0.831,0.845 0.204,0.365 0.307,0.759 0.307,1.182 0,0.655 -0.225,1.215 -0.677,1.676 C 1.158,-0.23 0.622,0 0,0 m 0.003,0.736 c 0.9,0 1.646,-0.326 2.239,-0.978 0.538,-0.595 0.807,-1.297 0.807,-2.112 0,-0.816 -0.285,-1.529 -0.854,-2.14 C 1.627,-5.105 0.896,-5.41 0.003,-5.41 c -0.897,0 -1.63,0.305 -2.198,0.916 -0.569,0.611 -0.854,1.324 -0.854,2.14 0,0.81 0.269,1.512 0.807,2.108 0.593,0.655 1.34,0.982 2.245,0.982"
             style="fill:#005fa1;fill-opacity:1;fill-rule:nonzero;stroke:none"
             id="path4609"
             inkscape:connector-curvature="0" />
        </g>
        <path
           d="m 82.649,758.609 h 0.753 v -8.101 h -0.753 z"
           style="fill:#005fa1;fill-opacity:1;fill-rule:nonzero;stroke:none"
           id="path4611"
           inkscape:connector-curvature="0" />
        <g
           id="g4613"
           transform="translate(89.8856,754.0203)">
          <path
             d="m 0,0 c -0.1,0.401 -0.246,0.723 -0.439,0.963 -0.191,0.238 -0.445,0.433 -0.76,0.58 -0.316,0.146 -0.648,0.219 -0.996,0.219 -0.573,0 -1.066,-0.184 -1.479,-0.553 C -3.975,0.94 -4.203,0.537 -4.357,0 Z m 0,-1.574 0.634,-0.332 c -0.208,-0.41 -0.448,-0.739 -0.721,-0.99 -0.272,-0.25 -0.579,-0.44 -0.919,-0.572 -0.341,-0.13 -0.726,-0.196 -1.156,-0.196 -0.954,0 -1.7,0.312 -2.237,0.938 -0.538,0.624 -0.807,1.331 -0.807,2.119 0,0.742 0.228,1.402 0.683,1.982 0.577,0.738 1.349,1.107 2.318,1.107 0.996,0 1.792,-0.378 2.387,-1.134 0.423,-0.534 0.638,-1.2 0.645,-1.998 h -5.259 c 0.014,-0.678 0.231,-1.236 0.651,-1.668 0.419,-0.436 0.937,-0.653 1.554,-0.653 0.298,0 0.587,0.053 0.869,0.155 0.282,0.103 0.521,0.242 0.718,0.412 0.197,0.172 0.411,0.449 0.64,0.83"
             style="fill:#005fa1;fill-opacity:1;fill-rule:nonzero;stroke:none"
             id="path4615"
             inkscape:connector-curvature="0" />
        </g>
        <g
           id="g4617"
           transform="translate(97.9896,755.7771)">
          <path
             d="m 0,0 c -0.418,0 -0.805,-0.103 -1.159,-0.31 -0.354,-0.204 -0.636,-0.493 -0.845,-0.865 -0.209,-0.373 -0.314,-0.765 -0.314,-1.179 0,-0.413 0.105,-0.807 0.316,-1.182 0.211,-0.375 0.495,-0.668 0.851,-0.877 0.356,-0.21 0.738,-0.315 1.146,-0.315 0.411,0 0.801,0.105 1.169,0.311 0.369,0.208 0.652,0.489 0.851,0.844 0.198,0.353 0.298,0.752 0.298,1.196 0,0.675 -0.223,1.241 -0.669,1.695 C 1.199,-0.228 0.651,0 0,0 M 3.006,2.831 V -5.271 H 2.264 v 1.004 C 1.949,-4.649 1.596,-4.937 1.203,-5.131 0.811,-5.323 0.382,-5.42 -0.084,-5.42 c -0.827,0 -1.533,0.3 -2.119,0.899 -0.586,0.6 -0.878,1.331 -0.878,2.19 0,0.842 0.295,1.56 0.886,2.159 0.591,0.599 1.302,0.898 2.133,0.898 0.48,0 0.914,-0.103 1.303,-0.307 C 1.629,0.216 1.97,-0.091 2.264,-0.5 v 3.331 z"
             style="fill:#005fa1;fill-opacity:1;fill-rule:nonzero;stroke:none"
             id="path4619"
             inkscape:connector-curvature="0" />
        </g>
        <g
           id="g4621"
           transform="translate(103.7245,755.6591)">
          <path
             d="m 0,0 -0.413,0.236 c 0.136,0.272 0.227,0.487 0.274,0.639 0.046,0.154 0.08,0.354 0.101,0.598 H -0.51 V 2.949 H 0.462 V 2.025 C 0.462,1.563 0.43,1.2 0.368,0.937 0.305,0.674 0.183,0.362 0,0"
             style="fill:#005fa1;fill-opacity:1;fill-rule:nonzero;stroke:none"
             id="path4623"
             inkscape:connector-curvature="0" />
        </g>
        <path
           d="m 106.448,756.353 h 0.753 v -5.846 h -0.753 z m 0.373,2.407 c 0.171,0 0.318,-0.062 0.439,-0.183 0.121,-0.122 0.182,-0.269 0.182,-0.441 0,-0.169 -0.061,-0.315 -0.182,-0.436 -0.121,-0.121 -0.268,-0.181 -0.439,-0.181 -0.167,0 -0.311,0.06 -0.433,0.181 -0.121,0.121 -0.182,0.267 -0.182,0.436 0,0.172 0.061,0.319 0.182,0.441 0.122,0.121 0.266,0.183 0.433,0.183"
           style="fill:#005fa1;fill-opacity:1;fill-rule:nonzero;stroke:none"
           id="path4625"
           inkscape:connector-curvature="0" />
        <g
           id="g4627"
           transform="translate(108.764,756.3523)">
          <path
             d="m 0,0 h 0.752 v -1.047 c 0.301,0.4 0.634,0.699 0.999,0.9 0.366,0.198 0.763,0.297 1.193,0.297 0.437,0 0.825,-0.111 1.163,-0.332 0.338,-0.223 0.589,-0.521 0.75,-0.898 0.161,-0.377 0.241,-0.961 0.241,-1.758 V -5.846 H 4.346 v 2.789 c 0,0.674 -0.028,1.123 -0.084,1.348 -0.086,0.387 -0.254,0.678 -0.501,0.873 -0.247,0.195 -0.569,0.293 -0.967,0.293 -0.455,0 -0.862,-0.15 -1.223,-0.451 C 1.211,-1.295 0.974,-1.668 0.86,-2.111 0.788,-2.401 0.752,-2.932 0.752,-3.701 V -5.846 H 0 Z"
             style="fill:#005fa1;fill-opacity:1;fill-rule:nonzero;stroke:none"
             id="path4629"
             inkscape:connector-curvature="0" />
        </g>
        <g
           id="g4631"
           transform="translate(118.2938,755.7771)">
          <path
             d="m 0,0 c -0.426,0 -0.822,-0.103 -1.187,-0.31 -0.366,-0.205 -0.652,-0.489 -0.86,-0.853 -0.207,-0.363 -0.311,-0.757 -0.311,-1.179 0,-0.641 0.214,-1.172 0.644,-1.591 0.43,-0.42 0.987,-0.629 1.671,-0.629 0.691,0 1.247,0.209 1.668,0.624 0.421,0.416 0.632,0.962 0.632,1.639 0,0.441 -0.097,0.833 -0.291,1.179 C 1.773,-0.774 1.499,-0.502 1.145,-0.301 0.79,-0.101 0.408,0 0,0 m 2.219,0.575 h 0.752 v -4.658 c 0,-0.82 -0.072,-1.42 -0.215,-1.799 C 2.559,-6.42 2.217,-6.834 1.73,-7.124 1.243,-7.413 0.658,-7.56 -0.027,-7.56 c -0.501,0 -0.952,0.073 -1.351,0.214 -0.399,0.142 -0.725,0.332 -0.975,0.572 -0.251,0.238 -0.482,0.587 -0.693,1.046 h 0.817 c 0.222,-0.386 0.509,-0.673 0.86,-0.859 0.352,-0.185 0.787,-0.279 1.307,-0.279 0.513,0 0.946,0.095 1.3,0.287 0.352,0.19 0.605,0.432 0.755,0.721 0.151,0.289 0.226,0.754 0.226,1.399 v 0.302 C 1.935,-4.517 1.59,-4.791 1.181,-4.983 0.772,-5.174 0.338,-5.271 -0.121,-5.271 c -0.537,0 -1.043,0.134 -1.516,0.401 -0.473,0.267 -0.839,0.627 -1.097,1.077 -0.258,0.451 -0.387,0.948 -0.387,1.488 0,0.54 0.134,1.045 0.403,1.513 0.269,0.467 0.641,0.838 1.116,1.109 0.475,0.272 0.976,0.409 1.503,0.409 0.437,0 0.846,-0.09 1.223,-0.272 0.379,-0.182 0.744,-0.478 1.095,-0.894 z"
             style="fill:#005fa1;fill-opacity:1;fill-rule:nonzero;stroke:none"
             id="path4633"
             inkscape:connector-curvature="0" />
        </g>
        <g
           id="g4635"
           transform="translate(125.9872,759.0927)">
          <path
             d="M 0,0 H 1.155 L -0.43,-1.654 h -0.741 z m 1.81,-5.072 c -0.1,0.401 -0.246,0.722 -0.438,0.961 -0.192,0.24 -0.446,0.434 -0.761,0.58 -0.316,0.147 -0.648,0.221 -0.995,0.221 -0.574,0 -1.067,-0.184 -1.479,-0.553 -0.302,-0.269 -0.53,-0.672 -0.684,-1.209 z m 0,-1.574 0.634,-0.333 C 2.236,-7.387 1.996,-7.717 1.724,-7.968 1.451,-8.219 1.145,-8.408 0.804,-8.539 0.464,-8.671 0.078,-8.736 -0.352,-8.736 c -0.953,0 -1.699,0.312 -2.237,0.937 -0.538,0.625 -0.806,1.332 -0.806,2.12 0,0.742 0.227,1.402 0.682,1.982 0.578,0.738 1.35,1.107 2.318,1.107 0.996,0 1.793,-0.378 2.388,-1.134 0.423,-0.533 0.638,-1.2 0.645,-1.999 h -5.26 c 0.014,-0.679 0.232,-1.234 0.651,-1.669 0.419,-0.434 0.938,-0.651 1.555,-0.651 0.297,0 0.586,0.053 0.868,0.155 0.282,0.103 0.521,0.242 0.718,0.412 0.197,0.172 0.411,0.449 0.64,0.83"
             style="fill:#005fa1;fill-opacity:1;fill-rule:nonzero;stroke:none"
             id="path4637"
             inkscape:connector-curvature="0" />
        </g>
        <g
           id="g4639"
           transform="translate(130.0272,756.3523)">
          <path
             d="m 0,0 h 0.752 v -1.047 c 0.301,0.4 0.634,0.699 0.999,0.9 0.366,0.198 0.763,0.297 1.193,0.297 0.437,0 0.825,-0.111 1.163,-0.332 0.338,-0.223 0.589,-0.521 0.75,-0.898 0.161,-0.377 0.241,-0.961 0.241,-1.758 V -5.846 H 4.346 v 2.789 c 0,0.674 -0.028,1.123 -0.084,1.348 -0.086,0.387 -0.254,0.678 -0.501,0.873 -0.247,0.195 -0.569,0.293 -0.967,0.293 -0.455,0 -0.862,-0.15 -1.223,-0.451 C 1.211,-1.295 0.974,-1.668 0.86,-2.111 0.788,-2.401 0.752,-2.932 0.752,-3.701 V -5.846 H 0 Z"
             style="fill:#005fa1;fill-opacity:1;fill-rule:nonzero;stroke:none"
             id="path4641"
             inkscape:connector-curvature="0" />
        </g>
        <path
           d="m 136.624,756.353 h 0.753 v -5.846 h -0.753 z m 0.374,2.407 c 0.17,0 0.317,-0.062 0.438,-0.183 0.121,-0.122 0.182,-0.269 0.182,-0.441 0,-0.169 -0.061,-0.315 -0.182,-0.436 -0.121,-0.121 -0.268,-0.181 -0.438,-0.181 -0.168,0 -0.313,0.06 -0.434,0.181 -0.121,0.121 -0.182,0.267 -0.182,0.436 0,0.172 0.061,0.319 0.182,0.441 0.121,0.121 0.266,0.183 0.434,0.183"
           style="fill:#005fa1;fill-opacity:1;fill-rule:nonzero;stroke:none"
           id="path4643"
           inkscape:connector-curvature="0" />
        <g
           id="g4645"
           transform="translate(143.8607,754.0203)">
          <path
             d="m 0,0 c -0.1,0.401 -0.246,0.723 -0.439,0.963 -0.191,0.238 -0.445,0.433 -0.76,0.58 -0.317,0.146 -0.648,0.219 -0.996,0.219 -0.573,0 -1.066,-0.184 -1.479,-0.553 C -3.975,0.94 -4.203,0.537 -4.357,0 Z m 0,-1.574 0.634,-0.332 c -0.208,-0.41 -0.448,-0.739 -0.721,-0.99 -0.272,-0.25 -0.579,-0.44 -0.919,-0.572 -0.341,-0.13 -0.726,-0.196 -1.156,-0.196 -0.954,0 -1.7,0.312 -2.237,0.938 -0.538,0.624 -0.807,1.331 -0.807,2.119 0,0.742 0.228,1.402 0.683,1.982 0.577,0.738 1.349,1.107 2.318,1.107 0.996,0 1.792,-0.378 2.387,-1.134 0.423,-0.534 0.638,-1.2 0.645,-1.998 h -5.259 c 0.014,-0.678 0.231,-1.236 0.651,-1.668 0.419,-0.436 0.937,-0.653 1.554,-0.653 0.298,0 0.587,0.053 0.869,0.155 0.282,0.103 0.521,0.242 0.718,0.412 0.197,0.172 0.411,0.449 0.64,0.83"
             style="fill:#005fa1;fill-opacity:1;fill-rule:nonzero;stroke:none"
             id="path4647"
             inkscape:connector-curvature="0" />
        </g>
        <g
           id="g4649"
           transform="translate(145.9935,756.3523)">
          <path
             d="m 0,0 h 0.753 v -2.729 c 0,-0.667 0.035,-1.125 0.107,-1.375 0.108,-0.359 0.313,-0.642 0.616,-0.849 0.303,-0.208 0.664,-0.313 1.084,-0.313 0.42,0 0.776,0.102 1.068,0.305 0.292,0.201 0.494,0.468 0.606,0.797 0.075,0.226 0.112,0.703 0.112,1.435 V 0 H 5.114 V -2.869 C 5.114,-3.674 5.021,-4.282 4.833,-4.69 4.645,-5.098 4.361,-5.418 3.983,-5.649 3.606,-5.881 3.132,-5.996 2.563,-5.996 c -0.57,0 -1.045,0.115 -1.427,0.347 C 0.755,-5.418 0.47,-5.096 0.282,-4.682 0.094,-4.268 0,-3.646 0,-2.815 Z"
             style="fill:#005fa1;fill-opacity:1;fill-rule:nonzero;stroke:none"
             id="path4651"
             inkscape:connector-curvature="0" />
        </g>
        <g
           id="g4653"
           transform="translate(152.4935,756.3523)">
          <path
             d="m 0,0 h 0.769 v -0.854 c 0.229,0.336 0.471,0.588 0.725,0.754 0.254,0.166 0.519,0.25 0.795,0.25 0.207,0 0.43,-0.066 0.666,-0.199 L 2.563,-0.682 C 2.406,-0.614 2.272,-0.58 2.166,-0.58 1.916,-0.58 1.674,-0.684 1.44,-0.889 1.207,-1.096 1.029,-1.414 0.908,-1.848 0.815,-2.182 0.769,-2.855 0.769,-3.868 V -5.846 H 0 Z"
             style="fill:#005fa1;fill-opacity:1;fill-rule:nonzero;stroke:none"
             id="path4655"
             inkscape:connector-curvature="0" />
        </g>
        <g
           id="g4657"
           transform="translate(159.0267,755.7137)">
          <path
             d="m 0,0 -0.484,-0.5 c -0.402,0.391 -0.795,0.586 -1.18,0.586 -0.244,0 -0.453,-0.082 -0.625,-0.242 -0.176,-0.162 -0.263,-0.35 -0.263,-0.565 0,-0.189 0.073,-0.371 0.215,-0.543 0.144,-0.174 0.445,-0.381 0.905,-0.618 0.559,-0.288 0.94,-0.569 1.141,-0.837 0.198,-0.273 0.297,-0.579 0.297,-0.919 0,-0.479 -0.17,-0.887 -0.507,-1.219 -0.337,-0.333 -0.758,-0.499 -1.264,-0.499 -0.338,0 -0.659,0.073 -0.965,0.219 -0.307,0.147 -0.561,0.35 -0.762,0.608 l 0.472,0.537 c 0.385,-0.434 0.792,-0.651 1.223,-0.651 0.303,0 0.559,0.098 0.77,0.29 0.213,0.193 0.318,0.421 0.318,0.683 0,0.215 -0.07,0.406 -0.21,0.575 -0.14,0.164 -0.456,0.372 -0.948,0.622 -0.528,0.274 -0.887,0.541 -1.076,0.807 -0.191,0.266 -0.286,0.567 -0.286,0.907 0,0.446 0.153,0.814 0.456,1.107 0.302,0.295 0.685,0.441 1.148,0.441 C -1.087,0.789 -0.546,0.525 0,0"
             style="fill:#005fa1;fill-opacity:1;fill-rule:nonzero;stroke:none"
             id="path4659"
             inkscape:connector-curvature="0" />
        </g>
        <g
           id="g4661"
           transform="translate(166.2338,755.7771)">
          <path
             d="m 0,0 c -0.418,0 -0.805,-0.103 -1.159,-0.31 -0.355,-0.204 -0.636,-0.493 -0.845,-0.865 -0.209,-0.373 -0.314,-0.765 -0.314,-1.179 0,-0.413 0.106,-0.807 0.316,-1.182 0.211,-0.375 0.495,-0.668 0.852,-0.877 0.355,-0.21 0.737,-0.315 1.145,-0.315 0.411,0 0.801,0.105 1.169,0.311 0.369,0.208 0.652,0.489 0.852,0.844 0.197,0.353 0.297,0.752 0.297,1.196 0,0.675 -0.223,1.241 -0.668,1.695 C 1.199,-0.228 0.652,0 0,0 M 3.006,2.831 V -5.271 H 2.264 v 1.004 C 1.95,-4.649 1.596,-4.937 1.204,-5.131 0.812,-5.323 0.383,-5.42 -0.083,-5.42 c -0.827,0 -1.534,0.3 -2.12,0.899 -0.585,0.6 -0.878,1.331 -0.878,2.19 0,0.842 0.296,1.56 0.886,2.159 0.591,0.599 1.302,0.898 2.133,0.898 0.48,0 0.914,-0.103 1.303,-0.307 0.389,-0.203 0.73,-0.51 1.023,-0.919 v 3.331 z"
             style="fill:#005fa1;fill-opacity:1;fill-rule:nonzero;stroke:none"
             id="path4663"
             inkscape:connector-curvature="0" />
        </g>
        <g
           id="g4665"
           transform="translate(170.8461,756.3523)">
          <path
             d="m 0,0 h 0.752 v -2.729 c 0,-0.667 0.036,-1.125 0.108,-1.375 0.108,-0.359 0.313,-0.642 0.616,-0.849 0.303,-0.208 0.664,-0.313 1.084,-0.313 0.419,0 0.775,0.102 1.068,0.305 0.292,0.201 0.494,0.468 0.605,0.797 0.075,0.226 0.112,0.703 0.112,1.435 V 0 H 5.114 V -2.869 C 5.114,-3.674 5.021,-4.282 4.833,-4.69 4.644,-5.098 4.361,-5.418 3.983,-5.649 3.604,-5.881 3.132,-5.996 2.562,-5.996 1.993,-5.996 1.519,-5.881 1.136,-5.649 0.754,-5.418 0.47,-5.096 0.282,-4.682 0.095,-4.268 0,-3.646 0,-2.815 Z"
             style="fill:#005fa1;fill-opacity:1;fill-rule:nonzero;stroke:none"
             id="path4667"
             inkscape:connector-curvature="0" />
        </g>
        <g
           id="g4669"
           transform="translate(180.6771,756.3523)">
          <path
             d="m 0,0 h 0.754 v -1.047 c 0.299,0.4 0.633,0.699 0.998,0.9 0.365,0.198 0.762,0.297 1.192,0.297 0.437,0 0.825,-0.111 1.163,-0.332 0.338,-0.223 0.588,-0.521 0.75,-0.898 0.162,-0.377 0.241,-0.961 0.241,-1.758 V -5.846 H 4.346 v 2.789 c 0,0.674 -0.028,1.123 -0.082,1.348 -0.088,0.387 -0.256,0.678 -0.502,0.873 -0.248,0.195 -0.57,0.293 -0.967,0.293 -0.455,0 -0.863,-0.15 -1.223,-0.451 C 1.213,-1.295 0.975,-1.668 0.86,-2.111 0.789,-2.401 0.754,-2.932 0.754,-3.701 V -5.846 H 0 Z"
             style="fill:#005fa1;fill-opacity:1;fill-rule:nonzero;stroke:none"
             id="path4671"
             inkscape:connector-curvature="0" />
        </g>
        <g
           id="g4673"
           transform="translate(187.2904,756.3523)">
          <path
             d="m 0,0 h 0.752 v -2.729 c 0,-0.667 0.037,-1.125 0.108,-1.375 0.107,-0.359 0.314,-0.642 0.617,-0.849 0.302,-0.208 0.664,-0.313 1.084,-0.313 0.418,0 0.775,0.102 1.068,0.305 0.291,0.201 0.494,0.468 0.604,0.797 0.076,0.226 0.113,0.703 0.113,1.435 V 0 H 5.114 V -2.869 C 5.114,-3.674 5.021,-4.282 4.834,-4.69 4.645,-5.098 4.361,-5.418 3.983,-5.649 3.605,-5.881 3.133,-5.996 2.563,-5.996 1.994,-5.996 1.519,-5.881 1.137,-5.649 0.754,-5.418 0.471,-5.096 0.283,-4.682 0.095,-4.268 0,-3.646 0,-2.815 Z"
             style="fill:#005fa1;fill-opacity:1;fill-rule:nonzero;stroke:none"
             id="path4675"
             inkscape:connector-curvature="0" />
        </g>
        <g
           id="g4677"
           transform="translate(194.0707,756.3523)">
          <path
             d="m 0,0 h 0.753 v -1.01 c 0.262,0.373 0.529,0.645 0.807,0.817 0.378,0.228 0.779,0.343 1.198,0.343 0.283,0 0.552,-0.055 0.807,-0.166 0.254,-0.111 0.463,-0.259 0.623,-0.443 0.163,-0.186 0.301,-0.449 0.42,-0.793 0.25,0.459 0.563,0.807 0.938,1.045 0.376,0.238 0.779,0.357 1.212,0.357 0.403,0 0.761,-0.102 1.069,-0.306 0.309,-0.204 0.539,-0.489 0.69,-0.854 0.149,-0.365 0.224,-0.914 0.224,-1.644 V -5.846 H 7.972 v 3.192 c 0,0.627 -0.044,1.058 -0.133,1.292 -0.09,0.235 -0.242,0.424 -0.458,0.567 C 7.165,-0.652 6.907,-0.58 6.606,-0.58 6.243,-0.58 5.91,-0.688 5.608,-0.903 5.308,-1.117 5.086,-1.404 4.946,-1.762 4.808,-2.121 4.739,-2.719 4.739,-3.557 V -5.846 H 3.985 v 2.993 c 0,0.706 -0.043,1.185 -0.131,1.437 -0.087,0.252 -0.24,0.455 -0.458,0.607 C 3.177,-0.656 2.917,-0.58 2.616,-0.58 2.269,-0.58 1.944,-0.686 1.642,-0.896 1.338,-1.104 1.114,-1.387 0.969,-1.74 0.825,-2.096 0.753,-2.639 0.753,-3.368 V -5.846 H 0 Z"
             style="fill:#005fa1;fill-opacity:1;fill-rule:nonzero;stroke:none"
             id="path4679"
             inkscape:connector-curvature="0" />
        </g>
        <g
           id="g4681"
           transform="translate(207.5072,759.0927)">
          <path
             d="m 0,0 h 1.154 l -1.585,-1.654 h -0.741 z m 1.809,-5.072 c -0.1,0.401 -0.246,0.722 -0.438,0.961 -0.191,0.24 -0.445,0.434 -0.761,0.58 -0.315,0.147 -0.647,0.221 -0.995,0.221 -0.574,0 -1.066,-0.184 -1.478,-0.553 -0.303,-0.269 -0.531,-0.672 -0.685,-1.209 z m 0,-1.574 0.634,-0.333 C 2.235,-7.387 1.995,-7.717 1.723,-7.968 1.451,-8.219 1.145,-8.408 0.803,-8.539 0.463,-8.671 0.077,-8.736 -0.353,-8.736 c -0.954,0 -1.699,0.312 -2.237,0.937 -0.538,0.625 -0.806,1.332 -0.806,2.12 0,0.742 0.227,1.402 0.682,1.982 0.578,0.738 1.351,1.107 2.318,1.107 0.996,0 1.793,-0.378 2.387,-1.134 0.423,-0.533 0.638,-1.2 0.646,-1.999 h -5.26 c 0.016,-0.679 0.232,-1.234 0.651,-1.669 0.42,-0.434 0.939,-0.651 1.556,-0.651 0.297,0 0.586,0.053 0.867,0.155 0.281,0.103 0.522,0.242 0.719,0.412 0.196,0.172 0.41,0.449 0.639,0.83"
             style="fill:#005fa1;fill-opacity:1;fill-rule:nonzero;stroke:none"
             id="path4683"
             inkscape:connector-curvature="0" />
        </g>
        <g
           id="g4685"
           transform="translate(211.2611,756.3523)">
          <path
             d="m 0,0 h 0.769 v -0.854 c 0.229,0.336 0.471,0.588 0.725,0.754 0.254,0.166 0.518,0.25 0.795,0.25 0.207,0 0.43,-0.066 0.666,-0.199 L 2.563,-0.682 C 2.405,-0.614 2.272,-0.58 2.166,-0.58 1.916,-0.58 1.674,-0.684 1.44,-0.889 1.207,-1.096 1.029,-1.414 0.908,-1.848 0.815,-2.182 0.769,-2.855 0.769,-3.868 V -5.846 H 0 Z"
             style="fill:#005fa1;fill-opacity:1;fill-rule:nonzero;stroke:none"
             id="path4687"
             inkscape:connector-curvature="0" />
        </g>
        <path
           d="m 214.743,756.353 h 0.752 v -5.846 h -0.752 z m 0.373,2.407 c 0.171,0 0.317,-0.062 0.44,-0.183 0.12,-0.122 0.181,-0.269 0.181,-0.441 0,-0.169 -0.061,-0.315 -0.181,-0.436 -0.123,-0.121 -0.269,-0.181 -0.44,-0.181 -0.168,0 -0.312,0.06 -0.433,0.181 -0.121,0.121 -0.182,0.267 -0.182,0.436 0,0.172 0.061,0.319 0.182,0.441 0.121,0.121 0.265,0.183 0.433,0.183"
           style="fill:#005fa1;fill-opacity:1;fill-rule:nonzero;stroke:none"
           id="path4689"
           inkscape:connector-curvature="0" />
        <g
           id="g4691"
           transform="translate(219.8705,755.7771)">
          <path
             d="m 0,0 c -0.418,0 -0.805,-0.103 -1.159,-0.31 -0.355,-0.204 -0.636,-0.493 -0.845,-0.865 -0.209,-0.373 -0.314,-0.765 -0.314,-1.179 0,-0.413 0.106,-0.807 0.316,-1.182 0.211,-0.375 0.495,-0.668 0.852,-0.877 0.355,-0.21 0.737,-0.315 1.145,-0.315 0.411,0 0.801,0.105 1.169,0.311 0.369,0.208 0.652,0.489 0.852,0.844 0.197,0.353 0.297,0.752 0.297,1.196 0,0.675 -0.223,1.241 -0.668,1.695 C 1.199,-0.228 0.652,0 0,0 M 3.006,0.575 V -7.409 H 2.264 v 3.142 C 1.949,-4.649 1.596,-4.937 1.204,-5.131 0.812,-5.323 0.383,-5.42 -0.083,-5.42 c -0.827,0 -1.534,0.3 -2.12,0.899 -0.585,0.6 -0.878,1.331 -0.878,2.19 0,0.842 0.296,1.56 0.886,2.159 0.591,0.599 1.302,0.898 2.133,0.898 0.48,0 0.916,-0.103 1.302,-0.307 0.39,-0.203 0.731,-0.51 1.024,-0.919 v 1.075 z"
             style="fill:#005fa1;fill-opacity:1;fill-rule:nonzero;stroke:none"
             id="path4693"
             inkscape:connector-curvature="0" />
        </g>
        <g
           id="g4695"
           transform="translate(224.4662,756.3523)">
          <path
             d="m 0,0 h 0.752 v -2.729 c 0,-0.667 0.037,-1.125 0.109,-1.375 0.107,-0.359 0.313,-0.642 0.616,-0.849 0.302,-0.208 0.664,-0.313 1.084,-0.313 0.418,0 0.775,0.102 1.068,0.305 0.291,0.201 0.494,0.468 0.604,0.797 0.076,0.226 0.113,0.703 0.113,1.435 V 0 H 5.115 V -2.869 C 5.115,-3.674 5.021,-4.282 4.834,-4.69 4.645,-5.098 4.361,-5.418 3.983,-5.649 3.605,-5.881 3.133,-5.996 2.563,-5.996 1.994,-5.996 1.519,-5.881 1.137,-5.649 0.754,-5.418 0.471,-5.096 0.283,-4.682 0.095,-4.268 0,-3.646 0,-2.815 Z"
             style="fill:#005fa1;fill-opacity:1;fill-rule:nonzero;stroke:none"
             id="path4697"
             inkscape:connector-curvature="0" />
        </g>
        <g
           id="g4699"
           transform="translate(236.1732,754.0203)">
          <path
             d="M 0,0 C -0.101,0.401 -0.246,0.723 -0.439,0.963 -0.631,1.201 -0.885,1.396 -1.2,1.543 -1.517,1.689 -1.848,1.762 -2.195,1.762 -2.769,1.762 -3.262,1.578 -3.674,1.209 -3.976,0.94 -4.203,0.537 -4.357,0 Z m 0,-1.574 0.634,-0.332 c -0.208,-0.41 -0.448,-0.739 -0.72,-0.99 -0.273,-0.25 -0.58,-0.44 -0.92,-0.572 -0.342,-0.13 -0.726,-0.196 -1.158,-0.196 -0.952,0 -1.697,0.312 -2.236,0.938 -0.537,0.624 -0.807,1.331 -0.807,2.119 0,0.742 0.228,1.402 0.684,1.982 0.577,0.738 1.349,1.107 2.318,1.107 0.996,0 1.791,-0.378 2.387,-1.134 0.422,-0.534 0.637,-1.2 0.644,-1.998 h -5.259 c 0.015,-0.678 0.232,-1.236 0.652,-1.668 0.419,-0.436 0.937,-0.653 1.553,-0.653 0.298,0 0.587,0.053 0.87,0.155 0.28,0.103 0.52,0.242 0.717,0.412 0.198,0.172 0.411,0.449 0.641,0.83"
             style="fill:#005fa1;fill-opacity:1;fill-rule:nonzero;stroke:none"
             id="path4701"
             inkscape:connector-curvature="0" />
        </g>
      </g>
    </g>
  </g>
</svg>
